<?xml version="1.1" encoding="iso-8859-1"?>
<!-- Generator: Adobe Illustrator 19.0.0, SVG Export Plug-In . SVG Version: 6.00 Build 0)  -->
<svg version="1.1" id="Capa_1" xmlns="http://www.w3.org/2000/svg" xmlns:xlink="http://www.w3.org/1999/xlink" x="0px" y="0px"
	 viewBox="0 0 296.477 296.477" style="enable-background:new 0 0 296.477 296.477;" xml:space="preserve">
  

    <defs>
        <style>
            @import url("https://fonts.googleapis.com/css?family=Staatliches:400,400i,700,700i");
        </style>
    </defs>
 

<g>

	
	<circle cx = "148.3" cy = "148.3" r="131.6" fill ="crimson"/>
	<path stroke = "black" stroke-width = "3"  d="M 244.63 35.621 M 273.361 191.241 l -45.305 -15.618 c 6.102 -17.803 6.028 -37.107 0.014 -54.724 l 45.257 -15.575 c 3.577 10.453 5.862 21.429 6.74 32.741 C 281.489 156.374 279.152 174.388 273.361 191.241 z M 275.905 104.058 c 0 -0.003 0 -0.005 0 -0.008 C 275.905 104.053 275.905 104.055 275.905 104.058 z M 247.935 61.472 l -36.069 31.332 c -2.669 -3.055 -5.579 -5.961 -8.752 -8.677 c -11.467 -9.814 -24.81 -15.995 -38.637 -18.692 l 9.095 -46.741 c 22.33 4.33 43.21 14.294 60.635 29.209 C 239.147 52.131 243.728 56.669 247.935 61.472 z M 103.251 23.983 c 6.428 -2.315 13.021 -4.109 19.71 -5.388 l 9.087 46.843 c -17.789 3.467 -34.584 12.651 -47.393 27.341 L 48.55 61.38 C 63.334 44.416 82.206 31.568 103.251 23.983 z M 23.124 105.236 l 45.297 15.617 c -6.102 17.803 -6.028 37.105 -0.015 54.723 l -45.295 15.588 c -3.562 -10.441 -5.837 -21.4 -6.713 -32.688 C 14.976 140.151 17.32 122.11 23.124 105.236 z M 48.467 235.066 l 36.145 -31.395 c 2.669 3.056 5.58 5.964 8.754 8.68 c 11.466 9.814 24.808 15.993 38.634 18.691 l -9.143 46.997 c -22.325 -4.348 -43.185 -14.422 -60.604 -29.333 C 57.288 244.458 52.689 239.898 48.467 235.066 z M 193.203 272.635 c -6.409 2.309 -12.986 4.11 -19.658 5.403 l -9.117 -47 c 17.789 -3.467 34.585 -12.651 47.394 -27.342 l 36.121 31.409 C 233.154 252.087 214.257 265.047 193.203 272.635 z"
		fill = "white"/>
		
	<style><![CDATA[svg text{stroke:black}]]></style>
	<text x="117" y="170" font-family = "Staatliches" fill = "white" stroke = "black" stroke-width = "3" font-size = "4em">5 $</text>	
	<circle cx = "148.3" cy = "148.3" r="131.6" fill ="none" stroke = "black" stroke-width="5" />
	<circle cx="93.372" cy="53.498" r="8" fill = "black"/>
	<circle cx="38.758" cy="148.382" r="8" fill = "black"/>
	<circle cx="93.623" cy="243.123" r="8" fill = "black"/>
	<circle cx="203.105" cy="242.977" r="8" fill = "black"/>
	<circle cx="257.717" cy="148.091" r="8" fill = "black"/>
	<circle cx="202.853" cy="53.351" r="8" fill = "black"/>
	
	
</g>

</svg>
